<svg width="45" height="45" xmlns="http://www.w3.org/2000/svg" xmlns:xlink="http://www.w3.org/1999/xlink"><defs><path d="M13.928.1A24.037 24.037 0 0 0 .185 13.715c-.236.595-.072 1.275.383 1.725l.305.3a9.414 9.414 0 0 1-.064 13.314l-.307.299A1.642 1.642 0 0 0 0 30.5v.042c.002.179.035.358.1.531a24.048 24.048 0 0 0 13.613 13.743c.595.235 1.276.07 1.726-.384l.3-.305c3.694-3.659 9.656-3.631 13.315.064l.298.307c.306.317.723.496 1.148.502h.04c.18-.002.359-.035.533-.1a24.042 24.042 0 0 0 13.744-13.614c.234-.595.07-1.275-.385-1.725l-.304-.3a9.416 9.416 0 0 1 .062-13.315l.308-.297c.46-.445.63-1.124.401-1.721A24.04 24.04 0 0 0 31.286.184a1.61 1.61 0 0 0-1.724.385l-.3.304A9.415 9.415 0 0 1 15.945.809l-.297-.306A1.64 1.64 0 0 0 14.477 0c-.185 0-.37.033-.549.1m8.527 32.017c-5.313-.024-9.598-4.351-9.573-9.662.025-5.313 4.352-9.598 9.664-9.572 5.312.024 9.597 4.351 9.572 9.662a9.616 9.616 0 0 1-9.615 9.572h-.048" id="a"/></defs><g fill="none" fill-rule="evenodd"><mask id="b" fill="#fff"><use xlink:href="#a"/></mask><use fill="#AAA" xlink:href="#a"/><g mask="url(#b)"><path d="M0 0h45v45H0z"/></g></g></svg>